Coordinates
version=1
nRows=16
nColumns=63
inDegrees=yes

Units are S.I. units (second, meters, Newtons, ...)
If the header above contains a line with 'inDegrees', this indicates whether rotational values are in degrees (yes) or radians (no).

endheader
time	pelvis_tilt	pelvis_list	pelvis_rotation	pelvis_tx	pelvis_ty	pelvis_tz	hip_flexion_r	hip_adduction_r	hip_rotation_r	knee_angle_r	knee_angle_r_beta	ankle_angle_r	subtalar_angle_r	mtp_angle_r	hip_flexion_l	hip_adduction_l	hip_rotation_l	knee_angle_l	knee_angle_l_beta	ankle_angle_l	subtalar_angle_l	mtp_angle_l	L5_S1_Flex_Ext	L5_S1_Lat_Bending	L5_S1_axial_rotation	L4_L5_Flex_Ext	L4_L5_Lat_Bending	L4_L5_axial_rotation	L3_L4_Flex_Ext	L3_L4_Lat_Bending	L3_L4_axial_rotation	L2_L3_Flex_Ext	L2_L3_Lat_Bending	L2_L3_axial_rotation	L1_L2_Flex_Ext	L1_L2_Lat_Bending	L1_L2_axial_rotation	L1_T12_Flex_Ext	L1_T12_Lat_Bending	L1_T12_axial_rotation	Abs_r3	Abs_r2	Abs_r1	Abs_t1	Abs_t2	neck_flexion	neck_bending	neck_rotation	arm_flex_r	arm_add_r	arm_rot_r	elbow_flex_r	pro_sup_r	wrist_flex_r	wrist_dev_r	arm_flex_l	arm_add_l	arm_rot_l	elbow_flex_l	pro_sup_l	wrist_flex_l	wrist_dev_l
1.310345	0.587799	-13.001699	95.986839	0.295456	0.803541	0.602149	12.982672	-1.129547	4.762406	6.239247	0.108895	29.365888	-5.746836	0.000000	14.823494	-0.501067	12.396306	8.614533	0.150352	31.122274	-1.068708	0.000000	-0.148320	-0.364509	0.429117	-0.275445	-0.484797	0.455937	-0.243675	-0.886267	0.455937	-0.169515	-0.886267	0.375478	-0.137730	-0.743307	0.348658	-0.084750	-0.564624	0.321838	-1.059436	-4.123399	2.386622	0.000000	0.000000	12.083557	3.261569	-4.368601	28.150634	-7.042242	15.391559	92.973790	86.055859	2.185402	7.887717	-4.224311	-13.042533	19.510207	86.539183	85.017203	-10.203139	1.531212
1.327586	0.804946	-12.956869	96.521668	0.295027	0.803520	0.601411	12.733890	-0.964550	4.648206	5.965532	0.104118	29.293967	-6.174608	0.000000	14.786626	-0.657715	12.590080	8.622420	0.150490	31.232147	-0.595336	0.000000	-0.156130	-0.353362	0.316145	-0.289949	-0.469972	0.335904	-0.256506	-0.859165	0.335904	-0.178441	-0.859165	0.276627	-0.144982	-0.720576	0.256868	-0.089213	-0.547358	0.237109	-1.115220	-3.997304	1.758302	0.000000	0.000000	12.007913	3.230378	-4.801182	27.221413	-7.201471	14.816096	92.454881	86.277521	0.837892	8.892848	-4.280729	-12.957739	18.880841	87.125444	84.318184	-11.037566	1.285584
1.344828	1.007988	-12.904458	97.077209	0.294488	0.803526	0.600642	12.467696	-0.820542	4.542638	5.697578	0.099441	29.184431	-6.682192	0.000000	14.748521	-0.779048	12.855497	8.635583	0.150719	31.321075	-0.204362	0.000000	-0.161955	-0.341434	0.199831	-0.300766	-0.454107	0.212320	-0.266075	-0.830162	0.212320	-0.185098	-0.830162	0.174852	-0.150391	-0.696252	0.162363	-0.092541	-0.528881	0.149873	-1.156826	-3.862368	1.111399	0.000000	0.000000	11.902212	3.193658	-5.149568	26.360848	-7.366045	14.251855	91.903249	86.526417	-1.066669	10.088618	-4.186374	-12.886701	18.350956	87.667091	83.516258	-11.905307	1.322585
1.362069	1.169893	-12.857535	97.586045	0.293931	0.803563	0.599925	12.222033	-0.718088	4.414368	5.460732	0.095308	29.075597	-7.132874	0.000000	14.718157	-0.852868	13.111240	8.644903	0.150882	31.383541	0.117667	0.000000	-0.165924	-0.332293	0.096196	-0.308138	-0.441950	0.102208	-0.272597	-0.807938	0.102208	-0.189635	-0.807938	0.084172	-0.154077	-0.677613	0.078159	-0.094809	-0.514722	0.072147	-1.185180	-3.758968	0.535014	0.000000	0.000000	11.768147	3.179331	-5.445654	25.605632	-7.537345	13.607025	91.278207	86.867067	-3.256183	11.301064	-3.921632	-12.852056	17.987660	88.115998	82.603708	-12.780219	1.534150
1.379310	1.282912	-12.832759	98.042862	0.293365	0.803620	0.599288	12.022356	-0.673419	4.143028	5.268971	0.091961	29.008906	-7.354576	0.000000	14.717355	-0.876655	13.272702	8.658886	0.151126	31.444202	0.488042	0.000000	-0.166751	-0.327214	0.008728	-0.309673	-0.435194	0.009273	-0.273955	-0.795588	0.009273	-0.190580	-0.795588	0.007637	-0.154845	-0.667254	0.007091	-0.095281	-0.506854	0.006546	-1.191084	-3.701508	0.048541	0.000000	0.000000	11.605552	3.201207	-5.702516	24.979576	-7.726715	12.868102	90.619141	87.222701	-5.683638	12.645469	-3.504105	-12.873077	17.830848	88.461070	81.558197	-13.648951	1.880209
1.396552	1.349025	-12.821296	98.427170	0.292808	0.803722	0.598782	11.863012	-0.673942	3.844970	5.115815	0.089288	28.951635	-7.484175	0.000000	14.731443	-0.850530	13.443898	8.667841	0.151282	31.462717	0.736006	0.000000	-0.167491	-0.325464	-0.063718	-0.311048	-0.432866	-0.067700	-0.275172	-0.791332	-0.067700	-0.191426	-0.791332	-0.055753	-0.155533	-0.663685	-0.051770	-0.095705	-0.504143	-0.047788	-1.196375	-3.681708	-0.354378	0.000000	0.000000	11.430014	3.260632	-5.877045	24.525412	-7.928866	12.096504	89.936613	87.579843	-8.356472	14.100695	-3.000085	-12.904407	17.780201	88.701015	80.688202	-14.482980	2.377060
1.413793	1.366471	-12.838981	98.697397	0.292308	0.803831	0.598396	11.767573	-0.712110	3.577801	5.003508	0.087328	28.906397	-7.550534	0.000000	14.771258	-0.782966	13.561554	8.670412	0.151327	31.451504	0.890312	0.000000	-0.165653	-0.327981	-0.109080	-0.307635	-0.436215	-0.115898	-0.272152	-0.797454	-0.115898	-0.189325	-0.797454	-0.095445	-0.153826	-0.668820	-0.088628	-0.094654	-0.508043	-0.081810	-1.183246	-3.710192	-0.606672	0.000000	0.000000	11.245880	3.342268	-6.058306	24.207084	-8.153082	11.240727	89.298986	87.656365	-10.848482	15.849914	-2.431274	-12.967935	17.872513	88.816727	79.957110	-15.210717	2.862239
1.431034	1.332956	-12.855204	98.861762	0.291864	0.803988	0.598133	11.703480	-0.791415	3.305927	4.935565	0.086142	28.889118	-7.501065	0.000000	14.802429	-0.671954	13.681296	8.666264	0.151255	31.399081	0.895469	0.000000	-0.166161	-0.333915	-0.140407	-0.308577	-0.444107	-0.149182	-0.272985	-0.811881	-0.149182	-0.189905	-0.811881	-0.122856	-0.154297	-0.680919	-0.114080	-0.094944	-0.517234	-0.105305	-1.186870	-3.777313	-0.780899	0.000000	0.000000	11.043084	3.421954	-6.136597	24.030117	-8.336590	10.391318	88.698002	87.586096	-13.203191	17.649472	-1.877135	-13.048382	17.995679	88.856392	79.513101	-15.846262	3.389466
1.448276	1.253951	-12.894307	98.887519	0.291490	0.804159	0.598032	11.705140	-0.900366	3.167819	4.914999	0.085783	28.852461	-7.481187	0.000000	14.854220	-0.535903	13.641816	8.661241	0.151167	31.339968	0.931569	0.000000	-0.164957	-0.343489	-0.142136	-0.306342	-0.456840	-0.151019	-0.271008	-0.835158	-0.151019	-0.188530	-0.835158	-0.124369	-0.153179	-0.700442	-0.115485	-0.094257	-0.532064	-0.106602	-1.178274	-3.885612	-0.790517	0.000000	0.000000	10.842026	3.453158	-6.285855	23.932364	-8.505153	9.513306	88.239894	87.259152	-15.276116	19.652838	-1.308244	-13.154329	18.225819	88.782057	79.278110	-16.341199	3.878982
1.465517	1.150303	-12.931971	98.839525	0.291092	0.804353	0.598066	11.730306	-1.027890	3.091559	4.925290	0.085963	28.800184	-7.466151	0.000000	14.901761	-0.374174	13.654070	8.653408	0.151030	31.234965	0.791426	0.000000	-0.164553	-0.353064	-0.140043	-0.305592	-0.469575	-0.148796	-0.270344	-0.858440	-0.148796	-0.188068	-0.858440	-0.122538	-0.152804	-0.719968	-0.113785	-0.094026	-0.546896	-0.105032	-1.175386	-3.993930	-0.778879	0.000000	0.000000	10.646611	3.450035	-6.341130	23.924342	-8.594132	8.669136	87.906417	87.045878	-16.942765	21.606278	-0.819963	-13.264514	18.426878	88.667973	79.267843	-16.638868	4.411345
1.482759	1.029145	-12.962874	98.707081	0.290690	0.804562	0.598199	11.778220	-1.166612	3.057966	4.974874	0.086828	28.743893	-7.398104	0.000000	14.937179	-0.199793	13.692833	8.644112	0.150868	31.092514	0.494262	0.000000	-0.164336	-0.362422	-0.131704	-0.305187	-0.482021	-0.139936	-0.269987	-0.881193	-0.139936	-0.187819	-0.881193	-0.115241	-0.152602	-0.739051	-0.107010	-0.093901	-0.561392	-0.098778	-1.173832	-4.099789	-0.732500	0.000000	0.000000	10.445284	3.400595	-6.359622	23.977423	-8.583546	7.875561	87.713450	87.056691	-18.242329	23.313641	-0.437769	-13.388543	18.609788	88.537276	79.455774	-16.773730	4.940920
1.500000	0.898310	-12.979466	98.532961	0.290254	0.804782	0.598425	11.829499	-1.314225	3.046042	5.047344	0.088093	28.682719	-7.287640	0.000000	14.954979	-0.014980	13.788644	8.633701	0.150687	30.914136	0.054430	0.000000	-0.165079	-0.371324	-0.127765	-0.306569	-0.493861	-0.135750	-0.271209	-0.902838	-0.135750	-0.188669	-0.902838	-0.111794	-0.153293	-0.757205	-0.103809	-0.094326	-0.575181	-0.095824	-1.179146	-4.200495	-0.710590	0.000000	0.000000	10.254172	3.348379	-6.299662	24.093650	-8.466224	7.184056	87.645256	87.208805	-19.176983	24.653690	-0.196937	-13.528958	18.750564	88.424239	79.799169	-16.776468	5.411446
1.517241	0.763667	-12.974442	98.340273	0.289796	0.805012	0.598713	11.871398	-1.465958	3.043123	5.136658	0.089652	28.623543	-7.132251	0.000000	14.948608	0.172903	13.934089	8.623589	0.150510	30.712617	-0.483291	0.000000	-0.167838	-0.380271	-0.132942	-0.311692	-0.505761	-0.141251	-0.275741	-0.924591	-0.141251	-0.191822	-0.924591	-0.116325	-0.155854	-0.775449	-0.108016	-0.095903	-0.589040	-0.099707	-1.198851	-4.301704	-0.739386	0.000000	0.000000	10.078244	3.314936	-6.187567	24.278768	-8.254283	6.668864	87.693791	87.452457	-19.920444	25.553918	-0.123453	-13.689254	18.846095	88.359308	80.282561	-16.735803	5.749318
1.534483	0.630797	-12.946846	98.178950	0.289301	0.805257	0.599010	11.884097	-1.620524	3.032299	5.218260	0.091076	28.567038	-6.962994	0.000000	14.916912	0.364841	14.163820	8.612299	0.150313	30.489083	-1.099431	0.000000	-0.172343	-0.389640	-0.156051	-0.320058	-0.518221	-0.165804	-0.283142	-0.947371	-0.165804	-0.196971	-0.947371	-0.136545	-0.160038	-0.794554	-0.126791	-0.098477	-0.603553	-0.117038	-1.231030	-4.407688	-0.867908	0.000000	0.000000	9.898152	3.324618	-6.024566	24.532646	-7.926954	6.316957	87.846041	87.777931	-20.370717	26.153284	-0.240092	-13.852589	18.851797	88.357256	80.905270	-16.617469	5.948910
1.551724	0.494867	-12.896695	98.042937	0.288828	0.805533	0.599246	11.864245	-1.779490	3.017214	5.290237	0.092332	28.525266	-6.771994	0.000000	14.849413	0.557285	14.450704	8.589270	0.149911	30.247417	-1.758593	0.000000	-0.178396	-0.401321	-0.190954	-0.331299	-0.533757	-0.202889	-0.293087	-0.975773	-0.202889	-0.203889	-0.975773	-0.167085	-0.165659	-0.818375	-0.155150	-0.101935	-0.621647	-0.143216	-1.274265	-4.539828	-1.062030	0.000000	0.000000	9.696299	3.392032	-5.871479	24.850709	-7.500749	6.143775	88.094120	88.167491	-20.605565	26.546129	-0.527106	-14.017607	18.798116	88.408987	81.635427	-16.519310	5.995984
1.568966	0.384844	-12.811363	98.004763	0.288282	0.805861	0.599429	11.785165	-1.920899	2.953174	5.328902	0.093007	28.478213	-6.607153	0.000000	14.749714	0.734428	14.835157	8.567604	0.149533	29.998687	-2.425884	0.000000	-0.187988	-0.411136	-0.253994	-0.349112	-0.546811	-0.269868	-0.308845	-0.999637	-0.269868	-0.214851	-0.999637	-0.222245	-0.174565	-0.838389	-0.206370	-0.107416	-0.636850	-0.190495	-1.342778	-4.650855	-1.412638	0.000000	0.000000	9.459543	3.504910	-5.675015	25.288489	-6.992454	6.208452	88.383596	88.597474	-20.472647	26.889771	-0.982379	-14.128308	18.605072	88.500603	82.468972	-16.364830	5.946740
